<?xml version="1.0" encoding="utf-8"?>
<!-- Generator: Adobe Illustrator 27.9.0, SVG Export Plug-In . SVG Version: 6.00 Build 0)  -->
<svg version="1.1" id="Outline" xmlns="http://www.w3.org/2000/svg" xmlns:xlink="http://www.w3.org/1999/xlink" x="0px" y="0px"
	 viewBox="0 0 512 512" style="enable-background:new 0 0 512 512;" xml:space="preserve">
<style type="text/css">
	.st0{fill:#212529;}
</style>
<path class="st0" d="M86,288.7l99.4,99.6c9.1,9,23.8,9,32.8-0.1c9-9.1,9-23.8-0.1-32.8l-76.2-76.3h231.9c12.8,0,23.2-10.4,23.2-23.2
	c0-12.8-10.4-23.2-23.2-23.2H141.9l76.3-76l0.1-0.1c9-9.1,9-23.8-0.1-32.8c-9-9-23.7-9-32.7,0L86,223.5
	c-8.7,8.6-13.6,20.3-13.7,32.5l0,0C72.3,268.3,77.3,280,86,288.7z"/>
</svg>
